<?xml version="1.0" encoding="iso-8859-1"?>
<!-- Generator: Adobe Illustrator 19.0.0, SVG Export Plug-In . SVG Version: 6.00 Build 0)  -->
<svg version="1.1" id="Layer_1" xmlns="http://www.w3.org/2000/svg" xmlns:xlink="http://www.w3.org/1999/xlink" x="0px" y="0px"
	 viewBox="0 0 486.421 486.421" style="enable-background:new 0 0 486.421 486.421;" xml:space="preserve">
<g>
	<g>
		<path style="fill:#D7E1F2;" d="M14.652,398.028L207.551,48.979c15.5-28.047,55.818-28.047,71.318,0l192.899,349.049
			c15.007,27.154-4.634,60.449-35.659,60.449H50.311C19.286,458.477-0.355,425.183,14.652,398.028z"/>
		<path d="M6.338,393.433L199.237,44.384c8.977-16.243,25.415-25.94,43.974-25.94s34.997,9.698,43.974,25.94l192.899,349.049
			c8.691,15.726,8.429,34.354-0.7,49.83c-9.129,15.476-25.307,24.715-43.274,24.715H50.311c-17.967,0-34.145-9.239-43.274-24.715
			C-2.092,427.787-2.353,409.159,6.338,393.433z M243.21,37.444c-11.54,0-21.763,6.03-27.345,16.131L22.966,402.623
			c-5.404,9.779-5.242,21.362,0.435,30.985s15.737,15.369,26.91,15.369H436.11c11.173,0,21.233-5.745,26.91-15.369
			c5.677-9.623,5.839-21.206,0.435-30.985l-192.9-349.049C264.973,43.474,254.751,37.444,243.21,37.444z"/>
	</g>
	<g>
		<g>
			<path style="fill:#3B4D81;" d="M201.108,392.36c-2.812,0-5.658-0.748-8.235-2.317c-7.481-4.557-9.851-14.315-5.295-21.796
				l49.072-80.565h-35.526c-5.919,0-11.345-3.296-14.074-8.549c-2.728-5.253-2.305-11.588,1.098-16.431l63.757-90.719
				c5.037-7.167,14.931-8.891,22.095-3.857c7.166,5.037,8.893,14.929,3.857,22.095l-46.201,65.739h33.225
				c5.733,0,11.02,3.094,13.827,8.092c2.808,4.998,2.7,11.122-0.282,16.019l-63.757,104.675
				C211.681,389.652,206.458,392.36,201.108,392.36z"/>
			<path d="M201.11,401.86C201.109,401.86,201.109,401.86,201.11,401.86c-4.644,0-9.2-1.281-13.179-3.703
				c-11.942-7.273-15.741-22.908-8.467-34.85l40.276-66.124h-18.616c-9.501,0-18.124-5.238-22.505-13.669
				c-4.38-8.431-3.706-18.498,1.756-26.272l63.757-90.719c3.895-5.542,9.715-9.237,16.39-10.401c6.674-1.16,13.399,0.34,18.94,4.234
				c11.44,8.041,14.206,23.889,6.168,35.329l-35.686,50.779h14.937c9.155,0,17.627,4.958,22.11,12.938
				c4.484,7.981,4.311,17.796-0.452,25.614L222.781,389.69C218.139,397.31,210.037,401.859,201.11,401.86z M264.893,174.765
				c-2.009,0.006-3.996,0.944-5.218,2.681l-63.757,90.719c-1.37,1.949-1.539,4.474-0.441,6.589c1.098,2.114,3.261,3.428,5.644,3.428
				h35.526c3.434,0,6.601,1.853,8.283,4.846c1.682,2.994,1.617,6.663-0.17,9.596l-49.07,80.566
				c-1.824,2.995-0.871,6.915,2.124,8.739c1.015,0.618,2.123,0.931,3.293,0.931c2.246-0.001,4.282-1.143,5.448-3.055l63.757-104.674
				c1.194-1.96,1.238-4.423,0.112-6.424c-1.123-2.001-3.248-3.244-5.544-3.244h-33.225c-3.546,0-6.796-1.974-8.43-5.121
				c-1.635-3.146-1.38-6.94,0.658-9.841l46.201-65.74c2.016-2.869,1.322-6.844-1.547-8.86
				C267.438,175.129,266.161,174.761,264.893,174.765z"/>
		</g>
	</g>
	<g>
		<path d="M95.96,429.41h-39.9c-5.246,0-9.5-4.254-9.5-9.5s4.254-9.5,9.5-9.5h39.9c5.246,0,9.5,4.254,9.5,9.5
			S101.207,429.41,95.96,429.41z"/>
	</g>
	<g>
		<path d="M429.332,408.952c-3.293,0-6.492-1.713-8.249-4.773l-19.862-34.605c-2.612-4.551-1.04-10.356,3.511-12.968
			s10.356-1.039,12.968,3.511l19.862,34.605c2.612,4.551,1.04,10.356-3.511,12.968C432.561,408.545,430.935,408.952,429.332,408.952
			z"/>
	</g>
	<g>
		<path d="M139.66,429.41h-6.65c-5.246,0-9.5-4.254-9.5-9.5s4.254-9.5,9.5-9.5h6.65c5.246,0,9.5,4.254,9.5,9.5
			S144.907,429.41,139.66,429.41z"/>
	</g>
</g>
<g>
</g>
<g>
</g>
<g>
</g>
<g>
</g>
<g>
</g>
<g>
</g>
<g>
</g>
<g>
</g>
<g>
</g>
<g>
</g>
<g>
</g>
<g>
</g>
<g>
</g>
<g>
</g>
<g>
</g>
</svg>
