<?xml version="1.0" encoding="iso-8859-1"?>
<!-- Generator: Adobe Illustrator 19.0.0, SVG Export Plug-In . SVG Version: 6.00 Build 0)  -->
<svg version="1.1" id="Layer_1" xmlns="http://www.w3.org/2000/svg" xmlns:xlink="http://www.w3.org/1999/xlink" x="0px" y="0px"
	 viewBox="0 0 511.999 511.999" style="enable-background:new 0 0 511.999 511.999;" xml:space="preserve">
<path style="fill:#F79E73;" d="M509.172,217.962c-7.82-52.326-31.86-102.696-72.143-142.979
	c-99.977-99.977-262.071-99.977-362.046,0s-99.977,262.071,0,362.046c36.322,36.322,80.844,59.433,127.607,69.364L509.172,217.962z"
	/>
<path style="fill:#F37C4A;" d="M437.029,437.029c59.694-59.694,83.733-141.529,72.143-219.067L342.582,51.37l-141.67,141.671
	l-56.669,255.007l58.345,58.345C284.539,523.796,373.373,500.683,437.029,437.029z"/>
<path style="fill:#FFFFFF;" d="M342.582,74.983c6.52-6.52,6.52-17.091,0-23.612s-17.091-6.52-23.612,0L275.682,94.66l3.936,19.677
	l19.677,3.936L342.582,74.983z"/>
<rect x="211.477" y="121.244" transform="matrix(-0.7071 0.7071 -0.7071 -0.7071 534.5562 54.4594)" style="fill:#394449;" width="89.045" height="33.392"/>
<path style="fill:#C4D3D9;" d="M460.64,193.041c6.52-6.52,6.52-17.091,0-23.611s-17.091-6.52-23.612,0l-43.288,43.288l3.936,19.677
	l19.677,3.936L460.64,193.041z"/>
<rect x="329.544" y="239.307" transform="matrix(-0.7071 0.7071 -0.7071 -0.7071 819.5919 172.52)" style="fill:#313A3E;" width="89.045" height="33.392"/>
<polygon style="fill:#414D53;" points="151.326,344.943 104.102,392.167 152.113,424.436 183.595,392.954 "/>
<polygon style="fill:#57676E;" points="159.197,352.813 119.056,328.415 87.574,359.897 111.973,400.037 "/>
<g>
	<polygon style="fill:#313A3E;" points="104.102,407.908 144.243,448.047 159.984,432.306 119.844,392.167 104.102,392.167 	"/>
	<polygon style="fill:#313A3E;" points="151.326,360.684 183.595,392.954 362.257,354.388 267.811,228.458 	"/>
</g>
<g>
	<polygon style="fill:#414D53;" points="275.682,236.33 157.623,149.753 119.056,328.415 151.326,360.684 	"/>
	<polygon style="fill:#414D53;" points="362.257,354.388 409.481,307.164 307.164,204.847 267.811,212.717 259.941,252.071 	"/>
</g>
<rect x="160.05" y="143.908" transform="matrix(-0.7071 -0.7071 0.7071 -0.7071 271.359 466.9998)" style="fill:#57676E;" width="144.697" height="66.783"/>
<rect x="80.772" y="351.582" transform="matrix(-0.7071 0.7071 -0.7071 -0.7071 425.5641 583.6553)" style="fill:#414D53;" width="22.261" height="56.766"/>
<g>
</g>
<g>
</g>
<g>
</g>
<g>
</g>
<g>
</g>
<g>
</g>
<g>
</g>
<g>
</g>
<g>
</g>
<g>
</g>
<g>
</g>
<g>
</g>
<g>
</g>
<g>
</g>
<g>
</g>
</svg>
