<?xml version="1.0" encoding="UTF-8" standalone="no"?>
<!-- Created with Inkscape (http://www.inkscape.org/) -->
<svg
   xmlns:svg="http://www.w3.org/2000/svg"
   xmlns="http://www.w3.org/2000/svg"
   version="1.0"
   width="620"
   height="318.35999"
   id="svg2">
  <defs
     id="defs4" />
  <g
     transform="translate(856.99991,264.48494)"
     id="layer1">
    <path
       d="M -475.69524,43.163117 C -480.00718,41.753442 -483.70525,38.446724 -485.84666,34.085977 C -487.52163,30.675112 -487.74483,29.464067 -487.74483,23.787166 C -487.74483,18.104509 -487.52249,16.900967 -485.83949,13.473674 C -481.76439,5.1750783 -473.30947,1.6890105 -463.99641,4.4674913 C -456.82029,6.6084278 -452.39993,12.881902 -451.71845,21.892643 C -450.77368,34.384738 -457.5213,43.16441 -468.58283,43.835713 C -471.08471,43.987548 -474.02354,43.709632 -475.69524,43.163117 z M -462.52949,36.90662 C -459.25385,34.295449 -457.56882,30.851015 -457.11415,25.836844 C -456.41709,18.149496 -459.27815,11.942651 -464.64138,9.5071124 C -471.6423,6.3278637 -479.47559,9.9043107 -481.66594,17.280017 C -485.27398,29.429578 -479.23879,39.83678 -468.9629,39.185429 C -465.8871,38.990463 -464.54905,38.516503 -462.52949,36.90662 z M -444.74257,23.787166 L -444.74257,4.1483403 L -442.03377,4.1483403 L -439.32496,4.1483403 L -439.32496,12.274751 L -439.32496,20.401162 L -429.16695,20.401162 L -419.00894,20.401162 L -419.00894,12.274751 L -419.00894,4.1483403 L -416.30013,4.1483403 L -413.59133,4.1483403 L -413.59133,23.787166 L -413.59133,43.425993 L -416.30013,43.425993 L -419.00894,43.425993 L -419.00894,34.283781 L -419.00894,25.141568 L -429.16695,25.141568 L -439.32496,25.141568 L -439.32496,34.283781 L -439.32496,43.425993 L -442.03377,43.425993 L -444.74257,43.425993 L -444.74257,23.787166 z M -497.85037,-23.123332 C -506.01564,-37.362064 -512.75693,-49.09972 -512.83101,-49.207022 C -512.9051,-49.314324 -539.77196,-41.801218 -572.53515,-32.511226 L -632.10458,-15.620333 L -666.24525,-23.332113 C -685.02262,-27.573592 -701.07158,-31.207066 -701.90962,-31.406502 C -703.63596,-31.817333 -704.02605,-34.267167 -702.46078,-34.867818 C -701.72987,-35.148294 -668.36709,-27.996727 -654.0556,-24.491806 C -652.66105,-24.150274 -652.49302,-24.280601 -652.91323,-25.377836 C -653.1842,-26.085395 -665.11514,-49.855638 -679.42642,-78.200619 L -705.44693,-129.73694 L -736.43591,-121.43367 C -758.58887,-115.49795 -767.56729,-113.35423 -767.92438,-113.91541 C -768.53257,-114.87131 -768.60456,-117.07062 -768.02758,-117.07062 C -767.79822,-117.07062 -753.39085,-120.88082 -736.01123,-125.53774 L -704.41191,-134.00485 L -648.23763,-117.79158 C -617.34176,-108.87428 -591.98694,-101.6547 -591.89356,-101.74808 C -591.80018,-101.84145 -606.19252,-111.64397 -623.87652,-123.53146 L -656.02926,-145.14506 L -656.02926,-176.8189 L -656.02926,-208.49274 L -653.99765,-208.49274 L -651.96605,-208.49274 L -651.96605,-177.77631 L -651.96605,-147.05988 L -615.9051,-122.7673 C -595.8262,-109.24107 -579.24389,-98.51069 -578.48975,-98.55589 C -577.74483,-98.60054 -555.09032,-104.96744 -528.14641,-112.70455 C -477.63833,-127.20825 -477.9749,-127.13227 -477.93579,-124.03817 C -477.92352,-123.06756 -473.50132,-124.41143 -532.26139,-107.52904 L -579.48675,-93.96069 L -639.53095,-111.28222 C -672.55525,-120.80905 -699.63596,-128.52289 -699.71029,-128.42409 C -699.78461,-128.32528 -685.4092,-105.84602 -667.76492,-78.470172 C -650.12065,-51.094325 -635.43472,-28.287254 -635.12953,-27.787784 C -634.69013,-27.068705 -621.60879,-30.557596 -572.28648,-44.548506 C -538.02801,-54.266373 -509.56241,-62.206778 -509.0296,-62.193857 C -508.49679,-62.180936 -482.46266,-53.375062 -451.17598,-42.625249 C -419.8893,-31.87543 -394.19438,-23.170642 -394.07617,-23.281276 C -393.95797,-23.391903 -404.70619,-42.330016 -417.9611,-65.365958 C -439.8432,-103.39523 -441.95316,-107.32832 -440.88965,-108.10598 C -440.24543,-108.57705 -439.40261,-108.85722 -439.01673,-108.7286 C -438.63085,-108.59998 -427.16269,-89.089798 -413.53192,-65.372649 C -399.90115,-41.655504 -388.61106,-22.112915 -388.44281,-21.944678 C -388.27458,-21.776434 -374.61648,-25.271312 -358.0915,-29.711075 C -341.56652,-34.150831 -327.79038,-37.625326 -327.47786,-37.432175 C -327.16532,-37.239017 -326.90962,-36.407075 -326.90962,-35.583403 C -326.90962,-34.180696 -328.88355,-33.557231 -358.06908,-25.741689 L -389.22856,-17.397552 L -446.8639,-30.696612 C -478.56333,-38.0111 -504.6412,-43.853712 -504.81471,-43.680199 C -504.98822,-43.506687 -499.35003,-33.359955 -492.28539,-21.131895 C -479.84361,0.40339844 -479.48589,1.1267439 -480.88392,1.923437 C -481.67773,2.3758211 -482.47959,2.7502926 -482.66582,2.7556018 C -482.85205,2.7609179 -489.6851,-8.8846084 -497.85037,-23.123332 z M -733.70879,-18.462166 C -738.02073,-19.87184 -741.7188,-23.178558 -743.8602,-27.539305 C -745.53517,-30.95017 -745.75838,-32.161215 -745.75838,-37.838116 C -745.75838,-43.520773 -745.53603,-44.724314 -743.85303,-48.151605 C -739.77793,-56.450202 -731.32302,-59.936274 -722.00995,-57.157788 C -714.83384,-55.016853 -710.41348,-48.743377 -709.732,-39.73264 C -708.78722,-27.240545 -715.53485,-18.460872 -726.59638,-17.789569 C -729.09825,-17.637734 -732.03708,-17.915651 -733.70879,-18.462166 z M -720.54304,-24.718662 C -717.26738,-27.329834 -715.58237,-30.774267 -715.1277,-35.788439 C -714.43063,-43.475786 -717.29169,-49.682627 -722.65493,-52.118171 C -729.65584,-55.297417 -737.48914,-51.720973 -739.67949,-44.345265 C -743.28752,-32.195705 -737.25234,-21.788501 -726.97645,-22.439854 C -723.90065,-22.63482 -722.5626,-23.108779 -720.54304,-24.718662 z M -783.34303,-37.838116 L -783.34303,-57.476939 L -780.63422,-57.476939 L -777.92542,-57.476939 L -777.92542,-49.350528 L -777.92542,-41.22412 L -767.7674,-41.22412 L -757.60939,-41.22412 L -757.60939,-49.350528 L -757.60939,-57.476939 L -754.90059,-57.476939 L -752.19178,-57.476939 L -752.19178,-37.838116 L -752.19178,-18.199289 L -754.90059,-18.199289 L -757.60939,-18.199289 L -757.60939,-27.341502 L -757.60939,-36.483714 L -767.7674,-36.483714 L -777.92542,-36.483714 L -777.92542,-27.341502 L -777.92542,-18.199289 L -780.63422,-18.199289 L -783.34303,-18.199289 L -783.34303,-37.838116 z M -309.10382,-21.84817 C -313.41576,-23.257845 -317.11383,-26.564563 -319.25524,-30.92531 C -320.9302,-34.336174 -321.15341,-35.54722 -321.15341,-41.22412 C -321.15341,-46.906776 -320.93106,-48.110316 -319.24806,-51.537614 C -315.17297,-59.83621 -306.71805,-63.322276 -297.40499,-60.543797 C -290.22887,-58.402855 -285.80851,-52.129386 -285.12703,-43.118644 C -284.18226,-30.626549 -290.92989,-21.846877 -301.99141,-21.175574 C -304.49328,-21.023739 -307.43212,-21.301655 -309.10382,-21.84817 z M -295.93807,-28.104667 C -292.66242,-30.715838 -290.9774,-34.160271 -290.52273,-39.174443 C -289.82567,-46.861789 -292.68673,-53.068635 -298.04996,-55.504173 C -305.05088,-58.683419 -312.88417,-55.106975 -315.07452,-47.731267 C -318.68255,-35.58171 -312.64737,-25.174506 -302.37148,-25.825858 C -299.29569,-26.020824 -297.95763,-26.494784 -295.93807,-28.104667 z M -278.15115,-41.22412 L -278.15115,-60.862948 L -275.44235,-60.862948 L -272.73354,-60.862948 L -272.73354,-52.736536 L -272.73354,-44.610125 L -262.57553,-44.610125 L -252.41752,-44.610125 L -252.41752,-52.736536 L -252.41752,-60.862948 L -249.70871,-60.862948 L -246.99991,-60.862948 L -246.99991,-41.22412 L -246.99991,-21.585294 L -249.70871,-21.585294 L -252.41752,-21.585294 L -252.41752,-30.727506 L -252.41752,-39.869719 L -262.57553,-39.869719 L -272.73354,-39.869719 L -272.73354,-30.727506 L -272.73354,-21.585294 L -275.44235,-21.585294 L -278.15115,-21.585294 L -278.15115,-41.22412 z M -797.36569,-88.21386 C -801.67763,-89.623533 -805.37569,-92.93025 -807.51707,-97.291 C -809.19206,-100.70186 -809.41526,-101.91291 -809.41526,-107.58981 C -809.41526,-113.27247 -809.19294,-114.47601 -807.50989,-117.9033 C -803.43483,-126.2019 -794.97991,-129.68796 -785.66684,-126.90948 C -778.49074,-124.76855 -774.07038,-118.49507 -773.38885,-109.48433 C -772.44409,-96.99224 -779.19171,-88.212566 -790.25325,-87.541264 C -792.7551,-87.389429 -795.69395,-87.667345 -797.36569,-88.21386 z M -784.19989,-94.47035 C -780.92427,-97.08153 -779.23925,-100.52596 -778.78458,-105.54013 C -778.08754,-113.22748 -780.94858,-119.43432 -786.3118,-121.86987 C -793.31271,-125.04911 -801.14603,-121.47266 -803.33636,-114.09696 C -806.94443,-101.9474 -800.90921,-91.54019 -790.63337,-92.19155 C -787.55751,-92.38651 -786.2195,-92.86047 -784.19989,-94.47035 z M -846.99991,-107.58981 L -846.99991,-127.22863 L -844.29111,-127.22863 L -841.5823,-127.22863 L -841.5823,-119.10222 L -841.5823,-110.97581 L -831.42429,-110.97581 L -821.26627,-110.97581 L -821.26627,-119.10222 L -821.26627,-127.22863 L -818.55747,-127.22863 L -815.84867,-127.22863 L -815.84867,-107.58981 L -815.84867,-87.950984 L -818.55747,-87.950984 L -821.26627,-87.950984 L -821.26627,-97.0932 L -821.26627,-106.23541 L -831.42429,-106.23541 L -841.5823,-106.23541 L -841.5823,-97.0932 L -841.5823,-87.950984 L -844.29111,-87.950984 L -846.99991,-87.950984 L -846.99991,-107.58981 z M -460.79683,-111.23869 C -465.10876,-112.64837 -468.80683,-115.95508 -470.94824,-120.31583 C -472.6232,-123.7267 -472.84641,-124.93774 -472.84641,-130.61464 C -472.84641,-136.2973 -472.62406,-137.50084 -470.94106,-140.92813 C -466.86596,-149.22673 -458.41106,-152.7128 -449.09799,-149.93432 C -441.92188,-147.79337 -437.50151,-141.51991 -436.82003,-132.50916 C -435.87526,-120.01707 -442.62289,-111.23739 -453.68441,-110.56609 C -456.18628,-110.41426 -459.12512,-110.69217 -460.79683,-111.23869 z M -447.63107,-117.49519 C -444.35542,-120.10635 -442.67041,-123.55079 -442.21573,-128.56496 C -441.51867,-136.25231 -444.37973,-142.45916 -449.74297,-144.89469 C -456.74388,-148.07394 -464.57717,-144.49749 -466.76752,-137.12179 C -470.37555,-124.97223 -464.34037,-114.56503 -454.06448,-115.21638 C -450.98869,-115.41134 -449.65064,-115.8853 -447.63107,-117.49519 z M -660.57109,-214.85043 C -664.88303,-216.2601 -668.5811,-219.56682 -670.72251,-223.92757 C -672.39747,-227.33843 -672.62067,-228.54947 -672.62067,-234.22638 C -672.62067,-239.90904 -672.39833,-241.11258 -670.71533,-244.53987 C -666.64024,-252.83846 -658.18532,-256.32454 -648.87226,-253.54605 C -641.69614,-251.40512 -637.27578,-245.13164 -636.5943,-236.1209 C -635.64952,-223.62881 -642.39715,-214.84913 -653.45867,-214.17783 C -655.96055,-214.026 -658.89939,-214.30391 -660.57109,-214.85043 z M -647.40534,-221.10693 C -644.12969,-223.7181 -642.44467,-227.16253 -641.99,-232.1767 C -641.29294,-239.86405 -644.15399,-246.07089 -649.51723,-248.50643 C -656.51815,-251.68568 -664.35144,-248.10924 -666.54179,-240.73353 C -670.14982,-228.58396 -664.11464,-218.17676 -653.83874,-218.82811 C -650.76295,-219.02308 -649.4249,-219.49704 -647.40534,-221.10693 z M -628.94122,-234.22638 L -628.94122,-253.8652 L -626.23241,-253.8652 L -623.52361,-253.8652 L -623.52361,-245.73879 L -623.52361,-237.61238 L -613.3656,-237.61238 L -603.20759,-237.61238 L -603.20759,-245.73879 L -603.20759,-253.8652 L -600.49878,-253.8652 L -597.78998,-253.8652 L -597.78998,-234.22638 L -597.78998,-214.58755 L -600.49878,-214.58755 L -603.20759,-214.58755 L -603.20759,-223.72976 L -603.20759,-232.87198 L -613.3656,-232.87198 L -623.52361,-232.87198 L -623.52361,-223.72976 L -623.52361,-214.58755 L -626.23241,-214.58755 L -628.94122,-214.58755 L -628.94122,-234.22638 z"
       id="path3123"
       style="fill:#000000" />
  </g>
</svg>
