<?xml version="1.0" standalone="no"?>
<!DOCTYPE svg PUBLIC "-//W3C//DTD SVG 20010904//EN"
 "http://www.w3.org/TR/2001/REC-SVG-20010904/DTD/svg10.dtd">
<svg version="1.0" xmlns="http://www.w3.org/2000/svg"
 width="1280.000000pt" height="942.000000pt" viewBox="0 0 1280.000000 942.000000"
 preserveAspectRatio="xMidYMid meet">
<metadata>
Created by potrace 1.15, written by Peter Selinger 2001-2017
</metadata>
<g transform="translate(0.000000,942.000000) scale(0.100000,-0.100000)"
fill="#000000" stroke="none">
<path d="M6928 9308 c-146 -30 -590 -105 -1080 -183 -517 -82 -509 -80 -798
-171 -113 -36 -227 -70 -255 -76 -27 -6 -75 -23 -105 -38 -30 -15 -113 -51
-185 -80 -228 -92 -278 -120 -815 -454 -157 -97 -290 -180 -297 -184 -42 -26
-252 -194 -323 -258 -47 -42 -254 -238 -462 -435 -349 -333 -393 -378 -610
-635 l-233 -276 -28 -177 c-15 -98 -47 -274 -70 -392 l-44 -214 -141 -201
c-133 -189 -146 -205 -225 -262 -46 -34 -95 -66 -108 -71 -21 -9 -410 -111
-423 -111 -7 0 -415 -441 -588 -635 l-138 -154 34 -88 c19 -48 53 -148 76
-221 22 -73 57 -170 76 -217 32 -76 44 -92 128 -172 166 -158 434 -354 600
-438 76 -39 83 -40 175 -40 77 1 113 6 182 28 l86 28 210 227 c228 246 303
331 303 344 0 4 6 8 13 8 21 0 124 204 204 406 123 312 202 432 353 535 47 32
171 123 277 201 142 106 211 150 265 172 239 93 282 107 408 127 l131 21 277
-22 c152 -12 315 -25 362 -29 l85 -6 112 -78 c61 -42 116 -77 122 -77 7 0 33
11 60 24 l48 25 147 -95 c81 -52 149 -94 151 -94 3 0 2197 -1437 2675 -1752
97 -64 181 -122 187 -129 5 -8 23 -52 38 -97 l27 -84 162 -128 c88 -70 391
-308 671 -529 l510 -401 555 -332 c305 -182 632 -376 725 -431 150 -89 880
-601 942 -661 12 -11 47 -69 78 -128 31 -58 63 -109 73 -113 138 -57 289 -90
368 -82 114 12 352 151 507 296 129 122 282 334 361 501 27 58 30 74 30 160 0
103 -24 207 -84 370 l-31 85 -117 90 c-83 65 -129 93 -162 101 -26 6 -157 75
-307 162 -235 136 -346 211 -1080 730 l-818 579 -755 390 c-415 215 -782 404
-816 421 l-61 31 -89 -54 c-84 -51 -123 -67 -109 -46 3 6 -714 490 -1594 1078
l-1600 1067 -37 84 -38 85 -145 96 c-145 96 -146 96 -219 201 -40 58 -98 145
-128 194 -31 49 -65 98 -75 109 -31 33 -28 38 137 257 104 138 217 255 314
327 133 97 402 254 610 357 197 97 312 144 592 242 124 44 652 173 873 214
121 22 330 71 465 107 l245 67 72 60 c39 34 70 66 69 71 -7 27 -295 375 -323
390 -36 20 -107 18 -283 -10 -131 -21 -308 -37 -356 -33 -37 3 -25 10 194 119
l234 116 -164 143 c-89 79 -170 149 -178 155 -11 8 -37 6 -102 -7z"/>
</g>
</svg>
