<?xml version="1.0" encoding="iso-8859-1"?>
<!-- Generator: Adobe Illustrator 19.0.0, SVG Export Plug-In . SVG Version: 6.00 Build 0)  -->
<svg version="1.1" id="Layer_1" xmlns="http://www.w3.org/2000/svg" xmlns:xlink="http://www.w3.org/1999/xlink" x="0px" y="0px"
	 viewBox="0 0 450.292 450.292" style="enable-background:new 0 0 450.292 450.292;" xml:space="preserve">
<g transform="translate(0 -1020.36)" shape-rendering="auto" image-rendering="auto" color-rendering="auto" color-interpolation="sRGB">
	<g>
		<path style="fill:#FB9761;" d="M47.953,1131.095v15.943h111.968v-15.943H47.953z"/>
		<path style="fill:#5A3392;" d="M50.453,1125.343v15.943h111.968v-15.943H50.453z"/>
		<path style="fill:#3CDEF6;" d="M25.226,1195.111v15.943h111.968v-15.943C137.195,1195.111,25.226,1195.111,25.226,1195.111z"/>
		<g>
			<path style="fill:#5A3392;" d="M27.726,1189.361v15.943h111.968v-15.943C139.695,1189.361,27.726,1189.361,27.726,1189.361z"/>
			<path style="fill:#5A3392;" d="M249.587,1109.4c-1.507,0.148-2.942,0.721-4.136,1.65l-79.842,64.016
				c-3.618,2.537-4.496,7.525-1.96,11.145c2.536,3.617,7.525,4.494,11.144,1.959c0.257-0.18,0.503-0.375,0.737-0.584l76.299-61.063
				l70.63,28.229v90.59c-0.017,4.418,3.552,8.014,7.97,8.031c0.02,0,0.041,0,0.061,0h111.85c4.436-0.045,7.996-3.676,7.951-8.111
				c-0.043-4.373-3.578-7.908-7.951-7.951H338.403v-87.992c0.017-3.26-1.945-6.203-4.959-7.441l-79.961-32.008
				c-1.238-0.48-2.577-0.646-3.894-0.48L249.587,1109.4z"/>
			<path style="fill:#5A3392;" d="M325.532,1145.306c-1.796,0.23-3.461,1.064-4.723,2.363l-171.023,171.143l-126.733,63.307
				c-4.101,1.645-6.093,6.303-4.449,10.404c1.644,4.102,6.302,6.092,10.404,4.447c0.391-0.156,0.77-0.344,1.132-0.561
				l127.914-63.898c0.787-0.393,1.504-0.91,2.123-1.535l171.968-171.969c3.189-3.059,3.296-8.123,0.237-11.313
				c-1.77-1.846-4.316-2.734-6.85-2.391L325.532,1145.306z"/>
			<path style="fill:#5A3392;" d="M189.587,1289.281c-4.394,0.467-7.578,4.408-7.111,8.801c0.198,1.863,1.043,3.598,2.388,4.9
				l68.74,68.857l-71.102,42.639c-3.979,1.922-5.645,6.707-3.722,10.686c1.923,3.979,6.706,5.645,10.685,3.723
				c0.415-0.201,0.813-0.438,1.187-0.707l79.96-47.953c3.788-2.275,5.015-7.189,2.741-10.979c-0.337-0.561-0.742-1.078-1.205-1.541
				l-76.063-76.063c-1.695-1.732-4.084-2.602-6.496-2.365L189.587,1289.281z"/>
		</g>
	</g>
	<path style="fill:#5A3392;" d="M362.5,1061.327c-21.997,0-40.039,18.043-40.039,40.039c-0.001,21.996,18.043,39.922,40.039,39.922
		c21.996,0,39.921-17.924,39.921-39.922C402.421,1079.37,384.496,1061.327,362.5,1061.327z"/>
	<g>
		<path style="fill:#EE746C;" d="M362.5,1077.392c13.349,0,23.976,10.625,23.976,23.977c0,13.35-10.627,23.977-23.976,23.977
			c-13.35,0-23.977-10.627-23.977-23.977S349.15,1077.392,362.5,1077.392z"/>
		<path style="fill:#EE746C;" d="M0,1259.126v15.943h111.968v-15.943C111.968,1259.126,0,1259.126,0,1259.126z"/>
	</g>
	<path style="fill:#5A3392;" d="M2.5,1253.376v15.943h111.968v-15.943C114.468,1253.376,2.5,1253.376,2.5,1253.376z"/>
	<path style="fill:#FB9761;" d="M368.511,1083.579c8.329,0,14.96,6.631,14.96,14.961s-6.631,14.961-14.96,14.961
		c-8.33,0-14.961-6.633-14.961-14.961C353.55,1090.21,360.18,1083.579,368.511,1083.579z"/>
</g>
<g>
</g>
<g>
</g>
<g>
</g>
<g>
</g>
<g>
</g>
<g>
</g>
<g>
</g>
<g>
</g>
<g>
</g>
<g>
</g>
<g>
</g>
<g>
</g>
<g>
</g>
<g>
</g>
<g>
</g>
</svg>
