<?xml version="1.0" encoding="iso-8859-1"?>
<!-- Generator: Adobe Illustrator 19.0.0, SVG Export Plug-In . SVG Version: 6.00 Build 0)  -->
<svg version="1.1" id="Layer_1" xmlns="http://www.w3.org/2000/svg" xmlns:xlink="http://www.w3.org/1999/xlink" x="0px" y="0px"
	 viewBox="0 0 512 512" style="enable-background:new 0 0 512 512;" xml:space="preserve">
<path style="fill:#D1D3D3;" d="M476.826,465.5v-83.064c0-3.494-2.858-6.351-6.351-6.351h-32.418v-86.09
	c0-3.492-2.858-6.351-6.351-6.351H386.99c-3.493,0-6.351,2.859-6.351,6.351v86.09h-32.418c-3.493,0-6.351,2.857-6.351,6.351V465.5
	H476.826z"/>
<rect x="380.638" y="325.28" style="fill:#333E48;" width="57.422" height="50.807"/>
<rect x="441.786" y="420.543" style="opacity:0.1;enable-background:new    ;" width="15.877" height="44.943"/>
<rect x="341.866" y="397.786" style="fill:#333E48;" width="134.956" height="22.757"/>
<path style="opacity:0.1;enable-background:new    ;" d="M408.896,283.645h-21.905c-3.493,0-6.351,2.859-6.351,6.351v86.09h-32.418
	c-3.493,0-6.351,2.857-6.351,6.351v83.047H464.09C430.795,440.179,415.559,353.694,408.896,283.645z"/>
<path style="fill:#D1D3D3;" d="M416.399,22.647c-11.04,0-20.859,5.199-27.162,13.279c-6.975-3.084-14.685-4.811-22.802-4.811
	c-22.738,0-42.324,13.452-51.268,32.825c-5.449-1.606-11.211-2.483-17.18-2.483c-28.879,0-53.03,20.179-59.163,47.204
	c-35.043,4.301-62.187,34.146-62.187,70.354c0,39.161,31.747,70.907,70.907,70.907c10.441,0,20.345-2.276,29.271-6.329
	c8.925,4.052,18.828,6.329,29.269,6.329c39.161,0,70.907-31.746,70.907-70.907c0-12.745-3.379-24.692-9.265-35.029
	c29.456-0.662,53.339-23.874,55.052-53.058c15.971-2.993,28.06-17.002,28.06-33.84C450.838,38.064,435.418,22.647,416.399,22.647z"
	/>
<path style="fill:#A4A9AD;" d="M444.434,465.484c-52.12-39.612-59.99-229.16-59.99-270.862v-10.181c0-5.6-4.538-10.14-10.138-10.14
	H178.903c-5.599,0-10.139,4.54-10.139,10.14v10.181c0,41.702-7.869,231.25-59.989,270.862H444.434z"/>
<g>
	<circle style="fill:#D1D3D3;" cx="276.601" cy="201.555" r="7.873"/>
	<circle style="fill:#D1D3D3;" cx="211.631" cy="201.555" r="7.873"/>
	<circle style="fill:#D1D3D3;" cx="341.58" cy="201.555" r="7.873"/>
</g>
<path style="fill:#218649;" d="M391.294,303.237H161.915c-0.603,5.253-1.256,10.555-1.962,15.877h233.304
	C392.55,313.792,391.897,308.49,391.294,303.237z M396.596,341.812H156.614c-0.866,5.325-1.79,10.627-2.777,15.877h245.534
	C398.384,352.439,397.461,347.137,396.596,341.812z"/>
<path style="opacity:0.1;enable-background:new    ;" d="M290.309,256.567v-7.854c0-4.316-3.501-7.819-7.82-7.819H167.207
	c-4.105,72.084-17.862,193.755-58.433,224.589h227.804C296.377,434.93,290.309,288.732,290.309,256.567z"/>
<path style="fill:#D1D3D3;" d="M308.2,465.484c-40.202-30.553-46.27-176.75-46.27-208.916v-7.854c0-4.316-3.501-7.819-7.82-7.819
	H103.396c-4.319,0-7.82,3.503-7.82,7.819v7.854c0,32.166-6.069,178.364-46.27,208.916H308.2z"/>
<g>
	<circle style="fill:#A4A9AD;" cx="178.755" cy="270.007" r="7.873"/>
	<circle style="fill:#A4A9AD;" cx="130.065" cy="270.007" r="7.873"/>
	<circle style="fill:#A4A9AD;" cx="227.445" cy="270.007" r="7.873"/>
</g>
<path style="fill:#00AD68;" d="M271.872,373.529H85.634c-0.906,5.352-1.893,10.659-2.962,15.877h192.161
	C273.765,384.188,272.778,378.879,271.872,373.529z M278.527,405.63H78.98c-1.39,5.495-2.893,10.809-4.515,15.877h208.577
	C281.419,416.439,279.917,411.125,278.527,405.63z"/>
<path style="fill:#333E48;" d="M504.061,485.079c0,2.351-1.922,4.275-4.275,4.275H12.214c-2.352,0-4.275-1.924-4.275-4.275v-15.302
	c0-2.353,1.923-4.277,4.275-4.277h487.573c2.353,0,4.275,1.924,4.275,4.277V485.079z"/>
<path style="fill:#1E252B;" d="M499.786,457.561h-15.021v-75.125c0-7.879-6.41-14.289-14.289-14.289h-24.479v-78.151
	c0-7.879-6.41-14.289-14.289-14.289H396.49c-3.126-35.372-4.107-66.047-4.107-81.084V184.44c0-6.26-3.199-11.784-8.048-15.029
	c-0.785-6.487-2.348-12.783-4.697-18.83c11.802-2.46,22.719-8.203,31.533-16.72c10.239-9.895,16.837-22.746,18.927-36.669
	c16.926-5.763,28.678-21.776,28.678-40.107c0-23.367-19.011-42.378-42.378-42.378c-11.11,0-21.531,4.254-29.382,11.84
	c-6.615-2.241-13.515-3.373-20.581-3.373c-22.811,0-43.9,12.208-55.404,31.594c-4.297-0.832-8.664-1.252-13.045-1.252
	c-15.65,0-30.957,5.41-43.103,15.235c-10.533,8.519-18.347,20.044-22.375,32.871c-33.397,6.434-58.953,33.728-63.179,67.511
	c-5.097,3.201-8.504,8.856-8.504,15.307v10.181c0,3.942-0.09,17.458-1.141,38.335h-56.288c-8.689,0-15.759,7.068-15.759,15.758
	v7.854c0,54.306-10.133,172.98-41.224,200.995H12.214C5.479,457.561,0,463.042,0,469.777v15.302c0,6.734,5.479,12.214,12.214,12.214
	h487.573c6.734,0,12.214-5.48,12.214-12.214v-15.302C512,463.042,506.52,457.561,499.786,457.561z M468.887,384.025v5.822h-54.255
	c-0.5-1.893-0.994-3.833-1.485-5.822H468.887z M421.521,412.603c-0.768-2.2-1.534-4.492-2.295-6.88h49.661v6.88H421.521z
	 M468.887,428.481v29.082h-21.615c-5.952-5.173-12.719-14.046-19.477-29.082H468.887z M409.53,368.147
	c-2.199-10.478-4.298-22.077-6.251-34.93h26.84v34.93H409.53z M430.119,291.584v25.757h-29.087
	c-1.141-8.663-2.143-17.291-3.021-25.757L430.119,291.584L430.119,291.584z M239.789,116.54c3.324-0.409,6.034-2.857,6.775-6.122
	c5.483-24.153,26.628-41.022,51.422-41.022c5.051,0,10.077,0.727,14.936,2.159c3.773,1.111,7.801-0.71,9.452-4.288
	c7.912-17.139,25.207-28.214,44.06-28.214c6.799,0,13.39,1.39,19.591,4.132c3.327,1.472,7.232,0.493,9.47-2.377
	c5.067-6.497,12.686-10.223,20.902-10.223c14.613,0,26.501,11.889,26.501,26.501c0,12.743-9.077,23.694-21.584,26.037
	c-3.584,0.672-6.248,3.698-6.462,7.338c-1.468,25-22.246,45.023-47.304,45.586c-2.796,0.064-5.352,1.591-6.729,4.024
	c-1.379,2.432-1.375,5.411,0.008,7.84c3.314,5.82,5.616,12.002,6.931,18.449H185.851
	C191.175,140.222,212.677,119.865,239.789,116.54z M176.703,194.621V184.44c0-1.213,0.988-2.202,2.201-2.202h195.403
	c1.212,0,2.2,0.989,2.2,2.202v10.181c0,22.792,2.202,80.836,10.534,137.372c8.814,59.794,21.934,101.862,39.098,125.568H311.093
	c-31.092-28.01-41.224-146.688-41.224-200.995v-7.854c0-8.689-7.07-15.757-15.759-15.757h-78.529
	C176.613,212.153,176.703,198.608,176.703,194.621z M95.371,362.787c6.442-43.711,8.145-88.594,8.145-106.221v-7.734h150.476v7.734
	c0,17.626,1.702,62.511,8.144,106.221c6.492,44.043,16.056,75.775,28.518,94.774H66.851
	C79.315,438.563,88.879,406.832,95.371,362.787z M496.123,481.416H15.877v-7.978h480.246V481.416z"/>
<g>
</g>
<g>
</g>
<g>
</g>
<g>
</g>
<g>
</g>
<g>
</g>
<g>
</g>
<g>
</g>
<g>
</g>
<g>
</g>
<g>
</g>
<g>
</g>
<g>
</g>
<g>
</g>
<g>
</g>
</svg>
