<?xml version="1.0" encoding="iso-8859-1"?>
<!-- Generator: Adobe Illustrator 19.0.0, SVG Export Plug-In . SVG Version: 6.00 Build 0)  -->
<svg version="1.1" id="Layer_1" xmlns="http://www.w3.org/2000/svg" xmlns:xlink="http://www.w3.org/1999/xlink" x="0px" y="0px"
	 viewBox="0 0 512 512" style="enable-background:new 0 0 512 512;" xml:space="preserve">
<circle style="fill:#FAD24D;" cx="256" cy="256" r="256"/>
<path style="fill:#FF5B62;" d="M200.192,505.882c0.924-39.404,1.991-110.808-1.967-123.93c-5.524-18.304-40.014-36.11-41.394-50.277
	c-1.381-14.161-22.152-41.824-22.152-58.752s3.155-60.771,3.496-69.755c0.346-8.979,14.337-46.632,17.792-55.616
	c3.455-8.984,18.48-1.035,22.628,6.217c4.148,7.256,6.91,18.134,6.91,18.134s-2.758-43.7,1.385-59.246
	c7.224-27.099,16.725-58.522,30.827-65.921c4.378-2.301,19.095,4.254,19.095,15.653s-9.672,34.198-9.672,34.198l-4.314,58.549
	c0,0,8.291-47.326,10.365-53.542c2.074-6.217,19.52-38.005,21.589-48.54c2.074-10.535,7.686-19.691,10.711-21.935
	c3.021-2.245,21.246,2.767,22.111,10.882c0.863,8.12-1.035,22.106-2.937,26.946c-1.898,4.836-17.617,60.97-17.617,60.97
	l0.517,43.524l2.162,10.535c0,0,8.379-32.646,7.857-39.552c-0.517-6.91,8.637-29.191,10.365-34.028
	c1.728-4.837,20.554-50.087,25.907-56.826c5.354-6.739,17.792,0.863,17.792,11.224c0,10.365-5.354,33.681-5.354,33.681
	s-9.538,33.847-11.959,45.935c-2.42,12.092-2.208,54.59-2.208,54.59s13.815-44.914,14.854-47.501
	c1.039-2.591,28.771-35.168,34.988-41.385c6.217-6.217,16.48,3.385,15.27,11.502c-1.21,8.12-8.457,22.974-11.565,34.028
	c-3.109,11.053-17.27,38.346-17.27,46.979c0,8.637-2.415,52.85-8.633,80.489c-6.217,27.635-8.983,63.565-20.73,85.672
	c-8.748,16.471,1.271,94.692,6.951,133.523c-22.245,6.305-45.718,9.681-69.976,9.681c-19.173,0-37.843-2.125-55.81-6.12
	L200.192,505.882z"/>
<path style="fill:#21D0C3;" d="M25.45,144.602H486.55C502.855,178.283,512,216.074,512,256.005c0,25.593-3.774,50.3-10.762,73.616
	H10.767c-6.988-23.316-10.762-48.022-10.762-73.616c0-39.93,9.145-77.722,25.45-111.403H25.45z"/>
<path style="fill:#15BDB2;" d="M158.22,144.602h8.869c4.684,1.783,9.441,5.561,11.506,9.168c4.148,7.256,6.91,18.134,6.91,18.134
	s-0.817-12.979-0.896-27.307h38.988l-0.775,10.545c0,0,0.758-4.333,1.875-10.545h42.517l0.346,28.85l2.162,10.535
	c0,0,8.245-32.138,7.866-39.385h36.711c-2.383,12.319-2.171,54.415-2.171,54.415s13.815-44.914,14.854-47.5
	c0.263-0.661,2.273-3.28,5.215-6.91h37.256c-1.455,3.839-2.817,7.63-3.779,11.053c-3.109,11.053-17.27,38.346-17.27,46.979
	c0,8.637-2.415,52.85-8.633,80.489c-3.22,14.3-5.51,30.822-8.605,46.494H156.525c-2.951-14.651-21.838-40.554-21.838-56.692
	c0-16.928,3.155-60.771,3.496-69.755c0.346-8.979,14.337-46.632,17.792-55.616c0.517-1.344,1.293-2.309,2.254-2.951L158.22,144.602
	L158.22,144.602z"/>
<g>
	<path style="fill:#FEFEFE;" d="M291.189,329.616h-59.801c0.803-5.76,4.046-10.046,10.683-11.672
		c7.778-1.903,13.543,0.181,17.237,4.698c2.79-3.362,9.63-3.566,17.561-1.113c7.792,2.406,13.4,4.6,14.323,8.087H291.189z"/>
	<path style="fill:#FEFEFE;" d="M215.273,329.616h-35.492c-0.531-4.54-2.323-10.286-7.427-19.044
		c-11.515-19.764-23.173-36.457-20.725-41.981c2.448-5.524,7.482-0.859,15.829-2.947c8.347-2.088,8.924-6.014,10.938,0
		c2.014,6.014-2.591,13.75,0.25,21.801c5.584,15.847,11.46,24.679,23.067,30.978c7.454,4.051,12.817,7.658,13.562,11.187
		L215.273,329.616L215.273,329.616z"/>
	<path style="fill:#FEFEFE;" d="M172.156,206.98c-4.716-4.185-18.619-4.153-19.483,1.926c-0.863,6.078,1.293,20.439,0,32.499
		c-1.293,12.059-1.621,16.388-4.86,19.334c-3.239,2.946,1.192,5.487,7.774,5.044c6.582-0.439,9.7,1.035,15.644-1.362
		c5.944-2.392,5.944-5.247,0.979-11.511c-4.965-6.259-7.34-19.705-3.561-29.644C172.428,213.326,175.984,210.374,172.156,206.98z"/>
	<path style="fill:#FEFEFE;" d="M153.103,202.278c0.707-3.353,5.765-2.485,8.171-12.245c2.406-9.76,7.806-20.9,4.891-25.408
		c-2.914-4.512,0.97-8.009,6.37-3.589c5.399,4.42,5.071,20.624,1.617,27.159c-3.454,6.535-2.48,7.732,0.434,10.217
		c2.914,2.485,5.505,7.09-1.944,6.906c-7.45-0.185-8.637-1.958-13.492-1.257C154.29,204.763,152.894,203.261,153.103,202.278z"/>
	<path style="fill:#FEFEFE;" d="M226.913,329.616H208.53c-7.113-3.861-7.686-10.665-8.259-24.327
		c-0.647-15.474-7.774-66.282-9.284-78.798c-1.51-12.522-5.829-15.469-4.536-22.429c1.293-6.965,5.829-11.451,18.134-10.347
		c12.305,1.104,12.739,6.074,12.952,16.573c0.218,10.495-0.429,52.475,0,68.314c0.429,15.838,9.307,24.25,12.804,29.936
		c3.501,5.686,2.937,8.425,0.868,16.175c-0.42,1.58-1.967,3.445-4.305,4.909L226.913,329.616z"/>
	<path style="fill:#FEFEFE;" d="M194.058,144.602h18.291c-0.337,10.998-4.009,21.155,3.011,32.725
		c7.15,11.783,4.277,18.184-1.381,16.845c-7.15-1.686-16.083-2.36-20.831-0.628c-4.748,1.732-7.88,0.443-8.85-1.677
		c-0.97-2.116,6.152-7.368,6.263-14.822c0.083-5.718,3.21-21.672,3.496-32.453v0.009H194.058z"/>
	<path style="fill:#FEFEFE;" d="M258.566,316.161c-9.21-1.87-11.945-4.236-16.517-2.051c-4.568,2.185-7.196,5.902-11.912,0.429
		c-4.711-5.468-2.042-12.716,0.213-17.348c4.032-8.286,1.012-38.757,0.471-48.517c-0.54-9.76-7.335-43.178-3.723-50.729
		c3.617-7.547,8.795-13.625,20.886-11.598c12.087,2.023,13.598,15.1,7.122,37.561c-6.475,22.466-5.51,65.201,0,68.679
		c10.794,6.813,12.822,25.468,3.455,23.57L258.566,316.161z"/>
	<path style="fill:#FEFEFE;" d="M236.982,144.602h21.206c-0.255,10.407-0.037,20.573,0.157,25.178
		c0.434,10.129,9.501,16.757-2.804,16.18c-12.305-0.577-24.628,5.802-25.635-1.631c-1.007-7.431,5.556-11.783,6.855-34.799
		c0.093-1.677,0.167-3.317,0.222-4.923L236.982,144.602L236.982,144.602z"/>
	<path style="fill:#FEFEFE;" d="M285.983,275.838c-1.668,8.48-3.238,15.284,1.728,21.543c4.965,6.259-3.238,12.337-5.612,14.36
		c-2.374,2.023-15.759,6.245-21.371-6.452c-5.612-12.697,3.672-8.092,7.986-34.609c4.319-26.512,5.612-44.928,3.021-55.057
		c-2.591-10.124,3.021-19.15,16.624-18.596c13.598,0.554,18.134,10.864,10.577,26.148c-7.556,15.284-12.055,48.092-12.952,52.66
		v0.004H285.983z"/>
	<path style="fill:#FEFEFE;" d="M289.323,144.602h15.755c-1.617,3.048-2.73,6.651-2.503,11.797
		c0.749,17.182,0.097,29.127,0.429,32.628c1.002,10.545,0.652,11.238-10.078,8.633c-10.73-2.605-17.311,5.192-19.427-4.115
		c-2.116-9.303,6.795-4.744,12.549-29.538c1.981-8.531,2.868-14.683,3.271-19.409L289.323,144.602z"/>
	<path style="fill:#FEFEFE;" d="M313.942,290.938c-2.97,8.185-2.698,11.968-0.54,18.965c2.162,6.997-5.183,17.214-21.805,12.522
		c-16.624-4.698-9.395-21.912-3.561-26.055c5.829-4.143,9.113-12.059,14.545-30.013c5.427-17.954-0.749-31.312,5.496-38.638
		c5.183-6.074,10.092-7.464,21.589-5.769c10.004,1.473,9.21,14.854,1.654,22.772c-7.556,7.917-15.648,41.45-17.381,46.217
		L313.942,290.938L313.942,290.938z"/>
	<path style="fill:#FEFEFE;" d="M331.05,153.641l10.614-3.547c-0.406,1.413-0.476,2.965,0.157,4.711
		c2.327,6.429,5.464,11.08,0.689,20.485c-4.776,9.405,3.257,30.134,4.997,34.36c1.737,4.222-9.335,5.658-10.947,5.76
		c-7.709,0.48-13.205-0.54-12.092-5.113c1.109-4.573,5.132-5.617,4.795-19.316c-0.341-13.695-3.644-18.314-2.125-24.296
		c0.794-3.127,2.476-8.212,3.916-13.044L331.05,153.641L331.05,153.641z"/>
	<path style="fill:#FEFEFE;" d="M25.45,144.602H486.55c0.767,1.589,1.52,3.187,2.259,4.79H23.196
		c0.739-1.608,1.487-3.201,2.259-4.79H25.45z M502.619,324.831c-0.448,1.603-0.91,3.201-1.385,4.79H10.762
		c-0.476-1.589-0.937-3.187-1.385-4.79H502.619z"/>
	<path style="fill:#FEFEFE;" d="M331.97,171.221c-3.746,0-3.995,5.649-0.134,5.893l0.134,0.005h0.25l0.25,0.005l0.25,0.005
		l0.255,0.005l0.25,0.009l0.25,0.009l0.25,0.009l0.25,0.014l0.245,0.014l0.245,0.014l0.254,0.019l0.245,0.019l0.245,0.019
		l0.245,0.019l0.245,0.023l0.25,0.023l0.245,0.028l0.241,0.028l0.25,0.028l0.241,0.028l0.241,0.032l0.241,0.032l0.241,0.032
		l0.245,0.037l0.245,0.037l0.241,0.037l0.236,0.042l0.241,0.042l0.236,0.042l0.241,0.046l0.236,0.046l0.241,0.051l0.236,0.046
		l0.231,0.051l0.241,0.051l0.236,0.051l0.236,0.056l0.231,0.056l0.227,0.056l0.241,0.06l0.236,0.06l0.231,0.06l0.231,0.065
		l0.231,0.065l0.218,0.06c3.755,0.937,5.349-4.425,1.626-5.667l-0.019-0.005l-0.217-0.06l-0.263-0.074l-0.267-0.074l-0.267-0.074
		l-0.263-0.069l-0.263-0.069l-0.272-0.069l-0.272-0.065l-0.264-0.065l-0.272-0.065l-0.263-0.06l-0.277-0.06l-0.272-0.056
		l-0.267-0.056l-0.277-0.051l-0.267-0.051l-0.277-0.051l-0.277-0.046l-0.277-0.046l-0.277-0.046l-0.272-0.042l-0.272-0.042
		l-0.277-0.042l-0.281-0.037l-0.281-0.037l-0.281-0.032l-0.272-0.032l-0.281-0.032l-0.281-0.028l-0.277-0.028l-0.286-0.028
		l-0.281-0.023l-0.286-0.023l-0.286-0.019l-0.277-0.019l-0.286-0.019l-0.286-0.014l-0.286-0.014l-0.286-0.009l-0.286-0.009
		l-0.291-0.009l-0.281-0.009l-0.286-0.005l-0.291-0.005h-0.291L331.97,171.221z M318.759,179.424
		c3.635-1.455,1.677-6.767-2.018-5.538l-0.12,0.042l-0.263,0.097l-0.255,0.097l-0.254,0.097l-0.25,0.097l-0.25,0.097l-0.263,0.106
		l-0.25,0.102l-0.245,0.102l-0.255,0.106l-0.254,0.111l-0.245,0.106l-0.245,0.111l-0.245,0.111l-0.25,0.116l-0.245,0.116
		l-0.245,0.116l-0.25,0.12l-0.241,0.12l-0.241,0.12l-0.241,0.125l-0.241,0.125l-0.245,0.125l-0.241,0.13l-0.236,0.13l-0.245,0.134
		l-0.231,0.13l-0.236,0.13l-0.236,0.134l-0.231,0.134l-0.231,0.134l-0.236,0.139l-0.236,0.143l-0.222,0.139l-0.227,0.139
		l-0.236,0.148l-0.227,0.143l-0.227,0.148l-0.227,0.148l-0.218,0.143l-0.227,0.148l-0.227,0.157l-0.218,0.153l-0.217,0.153
		l-0.222,0.153l-0.218,0.157l-0.222,0.157l-0.051,0.042c-3.067,2.355,0.272,6.974,3.492,4.753l0.014-0.014l0.023-0.019l0.19-0.139
		l0.19-0.134l0.19-0.134l0.194-0.134l0.194-0.134l0.19-0.13l0.194-0.13l0.204-0.134l0.194-0.125l0.194-0.125l0.199-0.13l0.19-0.12
		l0.204-0.125l0.204-0.125l0.194-0.116l0.199-0.12l0.204-0.12l0.204-0.12l0.204-0.116l0.208-0.116l0.208-0.116l0.199-0.111
		l0.208-0.111l0.208-0.111l0.204-0.106l0.208-0.106l0.208-0.106l0.213-0.106l0.213-0.106l0.204-0.102l0.213-0.102l0.213-0.102
		l0.208-0.097l0.217-0.097l0.218-0.097l0.217-0.097l0.213-0.093l0.213-0.088l0.227-0.093l0.222-0.093l0.208-0.083l0.222-0.088
		l0.222-0.088l0.222-0.083l0.222-0.083l0.213-0.079l0.12-0.042h0.021V179.424z M298.26,196.731c0.749-1.307,0.378-3.002-0.887-3.875
		c-1.409-0.979-3.371-0.55-4.24,0.97l0.919,0.522L298.26,196.731z M293.133,193.825l-0.028,0.051l-0.13,0.236l-0.13,0.231
		l-0.134,0.245l-0.13,0.236l-0.13,0.241l-0.125,0.245l-0.125,0.241l-0.125,0.241l-0.12,0.241l-0.12,0.241l-0.12,0.25l-0.116,0.245
		l-0.116,0.245l-0.116,0.25l-0.111,0.245l-0.111,0.245l-0.106,0.245l-0.111,0.255l-0.106,0.255l-0.102,0.245l-0.102,0.25
		l-0.106,0.263l-0.097,0.25l-0.097,0.25l-0.097,0.255l-0.097,0.255l-0.097,0.263l-0.093,0.255l-0.093,0.255l-0.088,0.258
		l-0.088,0.258l-0.088,0.258l-0.088,0.263l-0.083,0.258l-0.083,0.258l-0.083,0.267l-0.079,0.258l-0.079,0.263l-0.079,0.267
		l-0.074,0.263l-0.074,0.267l-0.074,0.267l-0.069,0.263l-0.069,0.263l-0.069,0.272l-0.065,0.272l-0.005,0.023
		c-0.78,3.122,3.593,5.118,5.408,2.166c0.162-0.3,0.25-0.499,0.332-0.836v-0.005l-5.742-1.325 M294.256,206.869l0.056-0.227
		l0.056-0.227l0.06-0.241l0.06-0.236l0.06-0.231l0.065-0.231l0.065-0.231l0.065-0.227l0.069-0.231l0.069-0.231l0.069-0.222
		l0.074-0.231l0.074-0.227l0.074-0.222l0.079-0.231l0.079-0.227l0.079-0.222l0.083-0.227l0.079-0.222l0.079-0.213l0.083-0.222
		l0.083-0.222l0.088-0.222l0.088-0.222l0.083-0.208l0.093-0.222l0.093-0.227l0.088-0.213l0.093-0.213l0.097-0.218l0.097-0.218
		l0.097-0.218l0.097-0.208l0.102-0.213l0.102-0.213l0.102-0.204l0.106-0.213l0.106-0.213l0.106-0.208l0.106-0.208l0.106-0.204
		l0.111-0.208l0.111-0.208l0.111-0.199l0.116-0.208l0.116-0.208l0.028-0.051 M293.896,223.21c-0.642-3.418-5.839-3.095-5.839,0.642
		c0.009,0.167,0.023,0.309,0.051,0.466L293.896,223.21z M288.108,224.319v0.009l0.051,0.277l0.056,0.267l0.056,0.272l0.06,0.277
		l0.06,0.263l0.065,0.272l0.065,0.264l0.065,0.272l0.069,0.272l0.069,0.263l0.069,0.263l0.074,0.267l0.074,0.267l0.074,0.263
		l0.079,0.267l0.079,0.263l0.079,0.258l0.083,0.267l0.083,0.258l0.083,0.258l0.088,0.263l0.088,0.258l0.088,0.258l0.088,0.258
		l0.093,0.255l0.093,0.255l0.097,0.263l0.097,0.255l0.097,0.255l0.097,0.25l0.097,0.25l0.106,0.263l0.102,0.25l0.102,0.245
		l0.106,0.255l0.111,0.255l0.106,0.245l0.111,0.245l0.111,0.245l0.116,0.25l0.116,0.245l0.116,0.245l0.12,0.25l0.12,0.241
		l0.12,0.241l0.125,0.241l0.014,0.023c1.552,3.104,6.605,1.293,5.371-2.406l-0.139-0.304v-0.005l-5.233,2.712 M297.452,233.501
		l-0.102-0.204l-0.106-0.213l-0.106-0.213l-0.102-0.204l-0.102-0.213l-0.102-0.213l-0.097-0.208l-0.097-0.218l-0.097-0.218
		l-0.097-0.217l-0.093-0.213l-0.088-0.213l-0.093-0.227l-0.093-0.222l-0.083-0.208l-0.088-0.222l-0.088-0.222l-0.083-0.222
		l-0.083-0.222l-0.079-0.213l-0.079-0.222l-0.083-0.227l-0.079-0.222l-0.079-0.227l-0.079-0.231l-0.074-0.222l-0.074-0.227
		l-0.074-0.231l-0.069-0.222l-0.069-0.231l-0.069-0.231l-0.065-0.227l-0.065-0.231l-0.065-0.231l-0.06-0.231l-0.06-0.236
		l-0.06-0.241l-0.056-0.227l-0.056-0.231l-0.056-0.236l-0.051-0.236l-0.051-0.241l-0.051-0.231l-0.046-0.236l-0.051-0.241
		l-0.046-0.236v-0.009 M307.78,246.143c-2.956-2.273-6.67,1.866-3.705,4.582l0.046,0.037l0.083,0.065l0.204,0.162l0.208,0.162
		l0.218,0.167l0.217,0.167l0.213,0.157l0.213,0.157l0.217,0.162l0.222,0.157l0.218,0.157l0.222,0.153l0.217,0.153l0.217,0.153
		l0.227,0.157l0.227,0.148l0.217,0.143l0.227,0.148l0.227,0.148l0.227,0.143l0.236,0.148l0.227,0.139l0.222,0.139l0.236,0.143
		l0.236,0.139l0.231,0.134l0.231,0.134l0.236,0.134l0.236,0.13l0.231,0.13l0.245,0.134l0.236,0.13l0.241,0.13l0.245,0.125
		l0.241,0.125l0.241,0.125l0.241,0.12l0.241,0.12l0.25,0.12l0.245,0.116l0.245,0.116l0.25,0.116l0.245,0.111l0.245,0.111
		l0.245,0.106l0.254,0.111l0.255,0.106l0.245,0.102l0.102,0.042c3.395,1.358,5.779-3.459,2.526-5.312l-0.291-0.139l-0.074-0.032
		l-0.227-0.093l-0.213-0.088l-0.213-0.093l-0.218-0.097l-0.217-0.097l-0.217-0.097l-0.208-0.097l-0.213-0.102l-0.213-0.102
		l-0.204-0.102l-0.213-0.106l-0.213-0.106l-0.208-0.106l-0.208-0.106l-0.204-0.106l-0.208-0.111l-0.208-0.111l-0.199-0.111
		l-0.208-0.116l-0.208-0.116l-0.204-0.116l-0.204-0.12l-0.204-0.12l-0.199-0.12l-0.194-0.116l-0.204-0.125l-0.204-0.125l-0.19-0.12
		l-0.199-0.13l-0.194-0.125l-0.194-0.125l-0.204-0.134l-0.194-0.13l-0.19-0.13l-0.194-0.134l-0.194-0.134l-0.19-0.134l-0.19-0.134
		l-0.19-0.139l-0.185-0.139l-0.19-0.143l-0.185-0.139l-0.185-0.139l-0.181-0.139l-0.185-0.143l-0.19-0.148l-0.083-0.065
		L307.78,246.143L307.78,246.143z M333.225,254.601c-3.861,0.241-3.714,5.889,0.204,5.889h0.018l0.255-0.009l0.286-0.009
		l0.286-0.014l0.286-0.014l0.286-0.018l0.277-0.019l0.286-0.018l0.286-0.023l0.281-0.023l0.286-0.028l0.277-0.028l0.281-0.028
		l0.281-0.032l0.272-0.032l0.281-0.032l0.281-0.037l0.281-0.037l0.277-0.042l0.272-0.042l0.272-0.042l0.277-0.046l0.277-0.046
		l0.277-0.046l0.277-0.051l0.267-0.051l0.277-0.051l0.267-0.056l0.272-0.056l0.277-0.06l0.263-0.06l0.272-0.065l0.263-0.065
		l0.272-0.065l0.272-0.069l0.263-0.069l0.263-0.069l0.267-0.074l0.267-0.074l0.263-0.074l0.267-0.079l0.263-0.079l0.259-0.079
		l0.267-0.083l0.259-0.083l0.258-0.083l0.065-0.023c3.413-1.136,2.18-6.379-1.552-5.677l-0.309,0.083l-0.023,0.009l-0.227,0.074
		l-0.231,0.074l-0.222,0.069l-0.231,0.069l-0.231,0.069l-0.227,0.065l-0.231,0.065l-0.231,0.065l-0.231,0.06l-0.236,0.06
		l-0.241,0.06l-0.227,0.056l-0.231,0.056l-0.236,0.056l-0.236,0.051l-0.241,0.051l-0.231,0.051l-0.236,0.046l-0.241,0.051
		l-0.236,0.046l-0.241,0.046l-0.236,0.042l-0.241,0.042l-0.236,0.042l-0.241,0.037l-0.245,0.037l-0.245,0.037l-0.241,0.032
		l-0.241,0.032l-0.241,0.032l-0.241,0.028l-0.25,0.028l-0.241,0.028l-0.245,0.028l-0.25,0.023l-0.245,0.023l-0.245,0.019
		l-0.245,0.019l-0.245,0.019l-0.255,0.019l-0.245,0.014l-0.245,0.014l-0.25,0.014l-0.25,0.009l-0.254,0.009L333.225,254.601z
		 M358.076,244.512c-0.55,0.503-0.896,1.22-0.942,1.94c-0.18,2.693,2.974,4.194,4.933,2.397l0.13-0.12l0.194-0.18l0.199-0.185
		l0.194-0.185l0.194-0.19l0.185-0.18l0.194-0.19l0.19-0.19l0.19-0.19l0.19-0.194l0.181-0.185l0.19-0.194l0.185-0.194l0.185-0.199
		l0.18-0.194l0.18-0.194l0.181-0.199l0.18-0.204l0.176-0.199l0.18-0.204l0.176-0.204l0.171-0.204l0.176-0.208l0.167-0.204
		l0.167-0.204l0.176-0.213l0.167-0.213l0.162-0.204l0.162-0.208l0.167-0.217l0.167-0.218l0.157-0.213l0.157-0.213l0.162-0.217
		l0.157-0.222l0.157-0.217l0.153-0.222l0.153-0.217l0.153-0.218l0.157-0.227l0.148-0.227l0.143-0.218l0.148-0.227l0.148-0.227
		l0.143-0.227l0.148-0.236l0.139-0.227l0.051-0.088c1.756-3.072-2.157-6.06-4.661-3.556c-0.139,0.167-0.267,0.304-0.374,0.49
		l-0.042,0.069l-0.125,0.204l-0.12,0.19l-0.13,0.199l-0.125,0.194l-0.125,0.194l-0.134,0.204l-0.13,0.194l-0.13,0.19l-0.134,0.194
		l-0.134,0.194l-0.134,0.19l-0.134,0.19l-0.139,0.19l-0.139,0.185l-0.143,0.19l-0.139,0.185l-0.139,0.185l-0.139,0.18l-0.143,0.185
		l-0.148,0.19l-0.143,0.18l-0.143,0.176l-0.153,0.18l-0.148,0.18l-0.148,0.176l-0.153,0.18l-0.148,0.176l-0.153,0.176l-0.157,0.176
		l-0.153,0.171l-0.157,0.171l-0.157,0.171l-0.157,0.176l-0.157,0.167l-0.157,0.167l-0.157,0.167l-0.167,0.171l-0.162,0.167
		l-0.162,0.162l-0.162,0.162l-0.167,0.162l-0.171,0.167l-0.167,0.157l-0.167,0.157l-0.167,0.157l-0.176,0.157l-0.13,0.12v0.011
		H358.076z M370.431,220.716c-0.457,3.644,5.099,4.73,5.843,0.771l0.009-0.074l0.019-0.148l0.032-0.272l0.032-0.281l0.028-0.281
		l0.028-0.277l0.028-0.286l0.023-0.281l0.023-0.286l0.019-0.286l0.018-0.277l0.019-0.286l0.014-0.286l0.014-0.286l0.009-0.286
		l0.009-0.286l0.009-0.291l0.009-0.281l0.005-0.286l0.005-0.291v-0.291v-0.291l-0.005-0.291l-0.005-0.286l-0.009-0.281l-0.009-0.291
		l-0.009-0.286l-0.009-0.286l-0.014-0.286l-0.014-0.286l-0.019-0.286l-0.018-0.277l-0.019-0.286l-0.023-0.286l-0.023-0.281
		l-0.028-0.286l-0.028-0.277l-0.028-0.281l-0.032-0.281l-0.032-0.272l-0.032-0.281l-0.037-0.281l-0.037-0.281l-0.042-0.277
		l-0.042-0.272l-0.032-0.213c-0.716-3.83-6.31-2.97-5.825,0.919l0.028,0.185l0.037,0.245l0.032,0.241l0.032,0.241l0.032,0.241
		l0.028,0.241l0.028,0.25l0.028,0.241l0.028,0.245l0.023,0.25l0.023,0.245l0.018,0.245l0.019,0.245l0.019,0.245l0.018,0.255
		l0.014,0.245l0.014,0.245l0.014,0.25l0.009,0.25l0.009,0.25l0.009,0.25l0.005,0.255l0.005,0.25l0.005,0.25v0.25v0.25l-0.005,0.25
		l-0.005,0.25l-0.005,0.255l-0.009,0.25l-0.009,0.25l-0.009,0.25l-0.014,0.25l-0.014,0.245l-0.014,0.245l-0.018,0.255l-0.019,0.245
		l-0.019,0.245l-0.018,0.245l-0.023,0.245l-0.023,0.25l-0.028,0.245l-0.028,0.241l-0.028,0.25l-0.019,0.148L370.431,220.716z
		 M364.371,194.587c0.859,1.238,2.429,1.677,3.76,1.012c1.575-0.785,2.143-2.831,1.15-4.273l-0.13-0.199l-0.148-0.227l-0.157-0.227
		l-0.153-0.218l-0.153-0.218l-0.153-0.222l-0.157-0.218l-0.157-0.222l-0.162-0.218l-0.157-0.213l-0.157-0.213l-0.167-0.218
		l-0.167-0.218l-0.162-0.208l-0.162-0.204l-0.167-0.213l-0.176-0.213l-0.167-0.204l-0.167-0.204l-0.176-0.208l-0.171-0.204
		l-0.176-0.204l-0.18-0.204l-0.176-0.199l-0.18-0.204l-0.18-0.199l-0.181-0.194l-0.18-0.194l-0.185-0.199l-0.185-0.194l-0.19-0.194
		l-0.18-0.185l-0.19-0.194l-0.19-0.19l-0.19-0.19l-0.194-0.19l-0.185-0.18l-0.194-0.19l-0.194-0.185l-0.199-0.185l-0.194-0.18
		l-0.194-0.18l-0.199-0.18l-0.204-0.18l-0.199-0.176l-0.204-0.18l-0.204-0.176l-0.037-0.032c-2.573-2.143-6.157,0.961-4.401,3.816
		c0.185,0.263,0.337,0.471,0.591,0.684l0.018,0.014l0.176,0.148l0.176,0.153l0.176,0.157l0.171,0.153l0.171,0.157l0.171,0.157
		l0.176,0.157l0.167,0.157l0.167,0.157l0.167,0.157l0.171,0.167l0.167,0.162l0.162,0.162l0.162,0.162l0.162,0.167l0.167,0.171
		l0.157,0.167l0.157,0.167l0.157,0.167l0.157,0.176l0.157,0.171l0.157,0.171l0.153,0.171l0.157,0.176l0.153,0.176l0.148,0.176
		l0.153,0.18l0.148,0.176l0.148,0.18l0.153,0.18l0.143,0.176l0.143,0.18l0.148,0.19l0.143,0.185l0.139,0.18l0.139,0.185l0.139,0.185
		l0.143,0.19l0.139,0.185l0.139,0.19l0.134,0.19l0.134,0.19l0.134,0.194l0.134,0.194l0.13,0.19l0.13,0.194l0.13,0.199
		L364.371,194.587z"/>
</g>
<g>
</g>
<g>
</g>
<g>
</g>
<g>
</g>
<g>
</g>
<g>
</g>
<g>
</g>
<g>
</g>
<g>
</g>
<g>
</g>
<g>
</g>
<g>
</g>
<g>
</g>
<g>
</g>
<g>
</g>
</svg>
