<?xml version="1.0" encoding="UTF-8" standalone="no"?>
<!-- Created with Inkscape (http://www.inkscape.org/) -->

<svg
   width="210mm"
   height="297mm"
   viewBox="0 0 210 297"
   version="1.1"
   id="svg5"
   xml:space="preserve"
   inkscape:version="1.2.1 (9c6d41e410, 2022-07-14)"
   sodipodi:docname="spoon_bent.svg"
   inkscape:export-filename="spoon_bent.svg"
   inkscape:export-xdpi="96"
   inkscape:export-ydpi="96"
   xmlns:inkscape="http://www.inkscape.org/namespaces/inkscape"
   xmlns:sodipodi="http://sodipodi.sourceforge.net/DTD/sodipodi-0.dtd"
   xmlns="http://www.w3.org/2000/svg"
   xmlns:svg="http://www.w3.org/2000/svg"><sodipodi:namedview
     id="namedview7"
     pagecolor="#ffffff"
     bordercolor="#000000"
     borderopacity="0.25"
     inkscape:showpageshadow="2"
     inkscape:pageopacity="0.0"
     inkscape:pagecheckerboard="0"
     inkscape:deskcolor="#d1d1d1"
     inkscape:document-units="mm"
     showgrid="false"
     inkscape:zoom="2.1367164"
     inkscape:cx="148.82649"
     inkscape:cy="200.30735"
     inkscape:window-width="1920"
     inkscape:window-height="1046"
     inkscape:window-x="-11"
     inkscape:window-y="-11"
     inkscape:window-maximized="1"
     inkscape:current-layer="layer1" /><defs
     id="defs2" /><g
     inkscape:label="Lag 1"
     inkscape:groupmode="layer"
     id="layer1"><g
       id="g124"
       transform="matrix(0.35045487,0,0,0.38106681,21.980402,37.900487)"><g
         id="g66">
	<path
   style="fill:#d2d5d7"
   d="m 28.5,30 c -0.552,0 -1,-0.447 -1,-1 v -9 c 0,-0.553 0.448,-1 1,-1 0.552,0 1,0.447 1,1 v 9 c 0,0.552 -0.448,1 -1,1 z"
   id="path56" />
	<ellipse
   style="fill:#e6e6e6"
   cx="8.4013958"
   cy="25.819588"
   rx="6"
   ry="10"
   id="ellipse58"
   transform="rotate(-45)" />
	<path
   style="fill:#a46f3e"
   d="m 28.5,57 v 0 c -1.65,0 -3,-1.35 -3,-3 V 32 c 0,-1.65 1.35,-3 3,-3 v 0 c 1.65,0 3,1.35 3,3 v 22 c 0,1.65 -1.35,3 -3,3 z"
   id="path60" />
	<path
   style="fill:#d2d5d7"
   d="m 28.5,35 v 0 c -0.55,0 -1,-0.45 -1,-1 v 0 c 0,-0.55 0.45,-1 1,-1 v 0 c 0.55,0 1,0.45 1,1 v 0 c 0,0.55 -0.45,1 -1,1 z"
   id="path62" />
	<path
   style="fill:#d2d5d7"
   d="m 28.5,39 v 0 c -0.55,0 -1,-0.45 -1,-1 v 0 c 0,-0.55 0.45,-1 1,-1 v 0 c 0.55,0 1,0.45 1,1 v 0 c 0,0.55 -0.45,1 -1,1 z"
   id="path64" />
</g><g
         id="g68">
</g><g
         id="g70">
</g><g
         id="g72">
</g><g
         id="g74">
</g><g
         id="g76">
</g><g
         id="g78">
</g><g
         id="g80">
</g><g
         id="g82">
</g><g
         id="g84">
</g><g
         id="g86">
</g><g
         id="g88">
</g><g
         id="g90">
</g><g
         id="g92">
</g><g
         id="g94">
</g><g
         id="g96">
</g></g></g></svg>
