<?xml version="1.0" encoding="iso-8859-1"?>
<!-- Generator: Adobe Illustrator 19.0.0, SVG Export Plug-In . SVG Version: 6.00 Build 0)  -->
<svg xmlns="http://www.w3.org/2000/svg" xmlns:xlink="http://www.w3.org/1999/xlink" version="1.1" id="Capa_1" x="0px" y="0px" viewBox="0 0 505 505" style="enable-background:new 0 0 505 505;" xml:space="preserve" width="512" height="512">
<g>
	<path style="fill:#E95B2D;" d="M312.299,444.281c0,29.392-23.828,53.219-53.219,53.219h-98.252   c-29.391,0-53.219-23.827-53.219-53.219V141.348c0-29.392,23.828-53.219,53.219-53.219h98.252   c29.391,0,53.219,23.827,53.219,53.219V444.281z"/>
	<rect x="158.197" y="7.5" style="fill:#FABA45;" width="103.514" height="80.629"/>
	<path style="fill:#FABA45;" d="M312.299,369.339h31.873c29.391,0,53.219-23.827,53.219-53.219v-46.61   c0-29.393-23.828-53.219-53.219-53.219h-31.873v30.703h31.873c12.414,0,22.516,10.1,22.516,22.516v46.61   c0,12.415-10.102,22.516-22.516,22.516h-31.873V369.339z"/>
	<path style="fill:#0F2639;" d="M344.172,208.791h-24.373v-67.443c0-30.027-21.915-55.019-50.588-59.857V0H150.697v81.49   c-28.673,4.839-50.588,29.83-50.588,59.857v302.934c0,33.48,27.238,60.719,60.719,60.719h98.252   c33.48,0,60.719-27.238,60.719-60.719v-67.442h24.373c33.48,0,60.719-27.238,60.719-60.719v-46.61   C404.891,236.029,377.652,208.791,344.172,208.791z M165.697,15h88.514v65.629h-19.504V31.324h-15v49.305h-19.506V31.324h-15   v49.305h-19.504V15z M160.828,95.629h98.252c25.209,0,45.719,20.51,45.719,45.719v46.973H115.109v-46.973   C115.109,116.139,135.619,95.629,160.828,95.629z M304.799,382.309h-99.594v15h99.594v46.973c0,25.209-20.51,45.719-45.719,45.719   h-98.252c-25.209,0-45.719-20.51-45.719-45.719v-46.973h70.094v-15h-70.094V203.32h189.689v5.471v45.703v76.642v45.703V382.309z    M319.799,254.494h24.373c8.279,0,15.016,6.736,15.016,15.016v46.61c0,8.279-6.736,15.016-15.016,15.016h-24.373V254.494z    M389.891,316.12c0,25.209-20.51,45.719-45.719,45.719h-24.373v-15.703h24.373c16.551,0,30.016-13.465,30.016-30.016v-46.61   c0-16.551-13.465-30.016-30.016-30.016h-24.373v-15.703h24.373c25.209,0,45.719,20.51,45.719,45.719V316.12z"/>
</g>















</svg>
